<mxfile host="app.diagrams.net" modified="2023-11-14T16:35:30.413Z" agent="Mozilla/5.0 (Windows NT 10.0; Win64; x64) AppleWebKit/537.36 (KHTML, like Gecko) Chrome/118.0.0.0 Safari/537.36 OPR/104.0.0.0" etag="KzlmVO8k_f6J_bEiXRKw" version="22.1.1" type="device">
  <diagram name="Page-1" id="14Ba-zBAdnsFHIcO7eYu">
    <mxGraphModel dx="1393" dy="766" grid="1" gridSize="10" guides="1" tooltips="1" connect="1" arrows="1" fold="1" page="1" pageScale="1" pageWidth="850" pageHeight="1100" math="0" shadow="0">
      <root>
        <mxCell id="0" />
        <mxCell id="1" parent="0" />
        <mxCell id="ohb2JiH-lBD_aOpPsfsn-25" style="edgeStyle=orthogonalEdgeStyle;rounded=0;orthogonalLoop=1;jettySize=auto;html=1;entryX=0;entryY=0.5;entryDx=0;entryDy=0;endArrow=none;endFill=0;" parent="1" source="ohb2JiH-lBD_aOpPsfsn-1" target="ohb2JiH-lBD_aOpPsfsn-5" edge="1">
          <mxGeometry relative="1" as="geometry" />
        </mxCell>
        <mxCell id="ohb2JiH-lBD_aOpPsfsn-26" value="Initiates" style="edgeLabel;html=1;align=center;verticalAlign=middle;resizable=0;points=[];" parent="ohb2JiH-lBD_aOpPsfsn-25" vertex="1" connectable="0">
          <mxGeometry x="0.2603" relative="1" as="geometry">
            <mxPoint as="offset" />
          </mxGeometry>
        </mxCell>
        <mxCell id="ohb2JiH-lBD_aOpPsfsn-32" style="rounded=0;orthogonalLoop=1;jettySize=auto;html=1;endArrow=none;endFill=0;" parent="1" source="ohb2JiH-lBD_aOpPsfsn-1" target="ohb2JiH-lBD_aOpPsfsn-11" edge="1">
          <mxGeometry relative="1" as="geometry" />
        </mxCell>
        <mxCell id="ohb2JiH-lBD_aOpPsfsn-33" value="Partecipates" style="edgeLabel;html=1;align=center;verticalAlign=middle;resizable=0;points=[];" parent="ohb2JiH-lBD_aOpPsfsn-32" vertex="1" connectable="0">
          <mxGeometry x="0.0789" y="-3" relative="1" as="geometry">
            <mxPoint as="offset" />
          </mxGeometry>
        </mxCell>
        <mxCell id="5Ppcfx5CByhBPiSzzb0Z-1" style="rounded=0;orthogonalLoop=1;jettySize=auto;html=1;entryX=0;entryY=0;entryDx=0;entryDy=0;endArrow=none;endFill=0;" edge="1" parent="1" source="ohb2JiH-lBD_aOpPsfsn-1" target="ohb2JiH-lBD_aOpPsfsn-9">
          <mxGeometry relative="1" as="geometry" />
        </mxCell>
        <mxCell id="5Ppcfx5CByhBPiSzzb0Z-2" value="Initiate" style="edgeLabel;html=1;align=center;verticalAlign=middle;resizable=0;points=[];" vertex="1" connectable="0" parent="5Ppcfx5CByhBPiSzzb0Z-1">
          <mxGeometry x="0.0878" y="3" relative="1" as="geometry">
            <mxPoint as="offset" />
          </mxGeometry>
        </mxCell>
        <mxCell id="ohb2JiH-lBD_aOpPsfsn-1" value="Educator" style="shape=umlActor;verticalLabelPosition=bottom;verticalAlign=top;html=1;outlineConnect=0;" parent="1" vertex="1">
          <mxGeometry x="110" y="80" width="30" height="60" as="geometry" />
        </mxCell>
        <mxCell id="ohb2JiH-lBD_aOpPsfsn-12" style="edgeStyle=orthogonalEdgeStyle;rounded=0;orthogonalLoop=1;jettySize=auto;html=1;entryX=0;entryY=0.5;entryDx=0;entryDy=0;endArrow=none;endFill=0;" parent="1" source="ohb2JiH-lBD_aOpPsfsn-2" target="ohb2JiH-lBD_aOpPsfsn-6" edge="1">
          <mxGeometry relative="1" as="geometry" />
        </mxCell>
        <mxCell id="ohb2JiH-lBD_aOpPsfsn-13" value="initiate" style="edgeLabel;html=1;align=center;verticalAlign=middle;resizable=0;points=[];" parent="ohb2JiH-lBD_aOpPsfsn-12" vertex="1" connectable="0">
          <mxGeometry x="0.0483" relative="1" as="geometry">
            <mxPoint as="offset" />
          </mxGeometry>
        </mxCell>
        <mxCell id="ohb2JiH-lBD_aOpPsfsn-14" style="orthogonalLoop=1;jettySize=auto;html=1;entryX=0;entryY=1;entryDx=0;entryDy=0;strokeColor=default;endArrow=none;endFill=0;" parent="1" source="ohb2JiH-lBD_aOpPsfsn-2" target="ohb2JiH-lBD_aOpPsfsn-9" edge="1">
          <mxGeometry relative="1" as="geometry" />
        </mxCell>
        <mxCell id="ohb2JiH-lBD_aOpPsfsn-15" value="Initiate" style="edgeLabel;html=1;align=center;verticalAlign=middle;resizable=0;points=[];" parent="ohb2JiH-lBD_aOpPsfsn-14" vertex="1" connectable="0">
          <mxGeometry x="0.1417" y="-3" relative="1" as="geometry">
            <mxPoint as="offset" />
          </mxGeometry>
        </mxCell>
        <mxCell id="ohb2JiH-lBD_aOpPsfsn-28" style="rounded=0;orthogonalLoop=1;jettySize=auto;html=1;entryX=0.5;entryY=1;entryDx=0;entryDy=0;endArrow=none;endFill=0;" parent="1" source="ohb2JiH-lBD_aOpPsfsn-2" target="ohb2JiH-lBD_aOpPsfsn-3" edge="1">
          <mxGeometry relative="1" as="geometry" />
        </mxCell>
        <mxCell id="ohb2JiH-lBD_aOpPsfsn-29" value="Initiate" style="edgeLabel;html=1;align=center;verticalAlign=middle;resizable=0;points=[];" parent="ohb2JiH-lBD_aOpPsfsn-28" vertex="1" connectable="0">
          <mxGeometry x="-0.007" y="1" relative="1" as="geometry">
            <mxPoint as="offset" />
          </mxGeometry>
        </mxCell>
        <mxCell id="ohb2JiH-lBD_aOpPsfsn-2" value="Student" style="shape=umlActor;verticalLabelPosition=bottom;verticalAlign=top;html=1;outlineConnect=0;" parent="1" vertex="1">
          <mxGeometry x="120" y="400" width="30" height="60" as="geometry" />
        </mxCell>
        <mxCell id="ohb2JiH-lBD_aOpPsfsn-3" value="Sign into platform" style="rounded=1;whiteSpace=wrap;html=1;" parent="1" vertex="1">
          <mxGeometry x="20" y="260" width="120" height="60" as="geometry" />
        </mxCell>
        <mxCell id="ohb2JiH-lBD_aOpPsfsn-21" style="edgeStyle=orthogonalEdgeStyle;rounded=0;orthogonalLoop=1;jettySize=auto;html=1;exitX=1;exitY=0.5;exitDx=0;exitDy=0;dashed=1;endArrow=open;endFill=0;" parent="1" source="ohb2JiH-lBD_aOpPsfsn-5" target="ohb2JiH-lBD_aOpPsfsn-10" edge="1">
          <mxGeometry relative="1" as="geometry" />
        </mxCell>
        <mxCell id="ohb2JiH-lBD_aOpPsfsn-22" value="Includes" style="edgeLabel;html=1;align=center;verticalAlign=middle;resizable=0;points=[];" parent="ohb2JiH-lBD_aOpPsfsn-21" vertex="1" connectable="0">
          <mxGeometry x="-0.0222" y="1" relative="1" as="geometry">
            <mxPoint y="1" as="offset" />
          </mxGeometry>
        </mxCell>
        <mxCell id="ohb2JiH-lBD_aOpPsfsn-5" value="Create Tournament" style="rounded=1;whiteSpace=wrap;html=1;" parent="1" vertex="1">
          <mxGeometry x="350" y="80" width="120" height="60" as="geometry" />
        </mxCell>
        <mxCell id="ohb2JiH-lBD_aOpPsfsn-6" value="Subscribe to Tournament" style="rounded=1;whiteSpace=wrap;html=1;" parent="1" vertex="1">
          <mxGeometry x="350" y="400" width="120" height="60" as="geometry" />
        </mxCell>
        <mxCell id="ohb2JiH-lBD_aOpPsfsn-38" style="rounded=0;orthogonalLoop=1;jettySize=auto;html=1;entryX=0;entryY=0.5;entryDx=0;entryDy=0;dashed=1;" parent="1" source="ohb2JiH-lBD_aOpPsfsn-7" target="ohb2JiH-lBD_aOpPsfsn-19" edge="1">
          <mxGeometry relative="1" as="geometry" />
        </mxCell>
        <mxCell id="ohb2JiH-lBD_aOpPsfsn-39" value="Includes" style="edgeLabel;html=1;align=center;verticalAlign=middle;resizable=0;points=[];" parent="ohb2JiH-lBD_aOpPsfsn-38" vertex="1" connectable="0">
          <mxGeometry x="0.1889" y="-5" relative="1" as="geometry">
            <mxPoint as="offset" />
          </mxGeometry>
        </mxCell>
        <mxCell id="ohb2JiH-lBD_aOpPsfsn-7" value="Score Commit" style="rounded=1;whiteSpace=wrap;html=1;" parent="1" vertex="1">
          <mxGeometry x="370" y="540" width="120" height="60" as="geometry" />
        </mxCell>
        <mxCell id="ohb2JiH-lBD_aOpPsfsn-16" style="rounded=0;orthogonalLoop=1;jettySize=auto;html=1;dashed=1;endArrow=open;endFill=0;entryX=1;entryY=0.5;entryDx=0;entryDy=0;" parent="1" source="ohb2JiH-lBD_aOpPsfsn-8" target="ohb2JiH-lBD_aOpPsfsn-11" edge="1">
          <mxGeometry relative="1" as="geometry">
            <mxPoint x="550" y="340" as="targetPoint" />
          </mxGeometry>
        </mxCell>
        <mxCell id="ohb2JiH-lBD_aOpPsfsn-18" value="Includes" style="edgeLabel;html=1;align=center;verticalAlign=middle;resizable=0;points=[];" parent="ohb2JiH-lBD_aOpPsfsn-16" vertex="1" connectable="0">
          <mxGeometry x="0.0841" y="-2" relative="1" as="geometry">
            <mxPoint as="offset" />
          </mxGeometry>
        </mxCell>
        <mxCell id="ohb2JiH-lBD_aOpPsfsn-8" value="Deadline expires" style="rounded=1;whiteSpace=wrap;html=1;" parent="1" vertex="1">
          <mxGeometry x="680" y="270" width="120" height="60" as="geometry" />
        </mxCell>
        <mxCell id="ohb2JiH-lBD_aOpPsfsn-9" value="Look at tournament ranks" style="rounded=1;whiteSpace=wrap;html=1;" parent="1" vertex="1">
          <mxGeometry x="210" y="260" width="120" height="60" as="geometry" />
        </mxCell>
        <mxCell id="ohb2JiH-lBD_aOpPsfsn-10" value="Add Collaborators" style="rounded=1;whiteSpace=wrap;html=1;" parent="1" vertex="1">
          <mxGeometry x="560" y="80" width="120" height="60" as="geometry" />
        </mxCell>
        <mxCell id="ohb2JiH-lBD_aOpPsfsn-11" value="Manual Evaluation" style="rounded=1;whiteSpace=wrap;html=1;" parent="1" vertex="1">
          <mxGeometry x="425" y="240" width="120" height="60" as="geometry" />
        </mxCell>
        <mxCell id="ohb2JiH-lBD_aOpPsfsn-19" value="Pull Sources" style="rounded=1;whiteSpace=wrap;html=1;" parent="1" vertex="1">
          <mxGeometry x="640" y="490" width="120" height="60" as="geometry" />
        </mxCell>
        <mxCell id="ohb2JiH-lBD_aOpPsfsn-23" style="edgeStyle=orthogonalEdgeStyle;rounded=0;orthogonalLoop=1;jettySize=auto;html=1;entryX=1;entryY=0.5;entryDx=0;entryDy=0;endArrow=none;endFill=0;" parent="1" source="ohb2JiH-lBD_aOpPsfsn-20" target="ohb2JiH-lBD_aOpPsfsn-10" edge="1">
          <mxGeometry relative="1" as="geometry" />
        </mxCell>
        <mxCell id="ohb2JiH-lBD_aOpPsfsn-24" value="Partecipate" style="edgeLabel;html=1;align=center;verticalAlign=middle;resizable=0;points=[];" parent="ohb2JiH-lBD_aOpPsfsn-23" vertex="1" connectable="0">
          <mxGeometry x="0.1367" y="-3" relative="1" as="geometry">
            <mxPoint as="offset" />
          </mxGeometry>
        </mxCell>
        <mxCell id="ohb2JiH-lBD_aOpPsfsn-20" value="Educator" style="shape=umlActor;verticalLabelPosition=bottom;verticalAlign=top;html=1;outlineConnect=0;" parent="1" vertex="1">
          <mxGeometry x="780" y="80" width="30" height="60" as="geometry" />
        </mxCell>
        <mxCell id="ohb2JiH-lBD_aOpPsfsn-30" style="rounded=0;orthogonalLoop=1;jettySize=auto;html=1;entryX=0.457;entryY=0.061;entryDx=0;entryDy=0;entryPerimeter=0;endArrow=none;endFill=0;" parent="1" source="ohb2JiH-lBD_aOpPsfsn-1" target="ohb2JiH-lBD_aOpPsfsn-3" edge="1">
          <mxGeometry relative="1" as="geometry" />
        </mxCell>
        <mxCell id="ohb2JiH-lBD_aOpPsfsn-31" value="Initiate" style="edgeLabel;html=1;align=center;verticalAlign=middle;resizable=0;points=[];" parent="ohb2JiH-lBD_aOpPsfsn-30" vertex="1" connectable="0">
          <mxGeometry x="0.1495" y="6" relative="1" as="geometry">
            <mxPoint y="1" as="offset" />
          </mxGeometry>
        </mxCell>
        <mxCell id="ohb2JiH-lBD_aOpPsfsn-34" value="Github" style="shape=umlActor;verticalLabelPosition=bottom;verticalAlign=top;html=1;outlineConnect=0;" parent="1" vertex="1">
          <mxGeometry x="730" y="600" width="30" height="60" as="geometry" />
        </mxCell>
        <mxCell id="ohb2JiH-lBD_aOpPsfsn-36" style="rounded=0;orthogonalLoop=1;jettySize=auto;html=1;entryX=0.631;entryY=1.047;entryDx=0;entryDy=0;entryPerimeter=0;endArrow=none;endFill=0;" parent="1" source="ohb2JiH-lBD_aOpPsfsn-34" target="ohb2JiH-lBD_aOpPsfsn-19" edge="1">
          <mxGeometry relative="1" as="geometry" />
        </mxCell>
        <mxCell id="ohb2JiH-lBD_aOpPsfsn-37" value="Partecipates" style="edgeLabel;html=1;align=center;verticalAlign=middle;resizable=0;points=[];" parent="ohb2JiH-lBD_aOpPsfsn-36" vertex="1" connectable="0">
          <mxGeometry x="0.2334" y="-2" relative="1" as="geometry">
            <mxPoint as="offset" />
          </mxGeometry>
        </mxCell>
      </root>
    </mxGraphModel>
  </diagram>
</mxfile>
